<svg width="65" height="65" viewBox="0 0 65 65" fill="none" xmlns="http://www.w3.org/2000/svg">
<g filter="url(#filter0_b_1412_1093)">
<rect width="65" height="65" rx="4" fill="url(#paint0_linear_1412_1093)"/>
<rect x="0.25" y="0.25" width="64.5" height="64.5" rx="3.75" stroke="url(#paint1_linear_1412_1093)" stroke-opacity="0.15" stroke-width="0.5"/>
</g>
<g filter="url(#filter1_b_1412_1093)">
<path d="M45.125 27.5637V20.5C45.125 20.3342 45.0592 20.1752 44.942 20.058C44.8248 19.9408 44.6658 19.875 44.5 19.875H37.4363L32.4363 14.875C32.3164 14.7624 32.1582 14.6997 31.9938 14.6997C31.8294 14.6997 31.6711 14.7624 31.5513 14.875L26.5513 19.875H19.5C19.3343 19.875 19.1753 19.9408 19.0581 20.058C18.9409 20.1752 18.875 20.3342 18.875 20.5V27.5637L13.875 32.5637C13.8168 32.6218 13.7706 32.6907 13.7391 32.7667C13.7076 32.8426 13.6914 32.924 13.6914 33.0062C13.6914 33.0884 13.7076 33.1698 13.7391 33.2458C13.7706 33.3217 13.8168 33.3907 13.875 33.4487L18.875 38.4487V45.5C18.875 45.6657 18.9409 45.8247 19.0581 45.9419C19.1753 46.0591 19.3343 46.125 19.5 46.125H26.5638L31.5638 51.125C31.6218 51.1832 31.6908 51.2294 31.7667 51.2609C31.8427 51.2924 31.9241 51.3086 32.0063 51.3086C32.0885 51.3086 32.1699 51.2924 32.2458 51.2609C32.3217 51.2294 32.3907 51.1832 32.4488 51.125L37.4488 46.125H44.5C44.6658 46.125 44.8248 46.0591 44.942 45.9419C45.0592 45.8247 45.125 45.6657 45.125 45.5V38.4362L50.125 33.4362C50.1832 33.3782 50.2294 33.3092 50.2609 33.2333C50.2924 33.1573 50.3086 33.0759 50.3086 32.9937C50.3086 32.9115 50.2924 32.8301 50.2609 32.7542C50.2294 32.6782 50.1832 32.6093 50.125 32.5512L45.125 27.5637ZM44.0575 37.735C43.9995 37.7931 43.9536 37.8621 43.9222 37.9381C43.8909 38.014 43.8749 38.0953 43.875 38.1775V44.875H37.1775C37.0954 44.8748 37.014 44.8909 36.9381 44.9222C36.8622 44.9535 36.7932 44.9995 36.735 45.0575L32 49.7937L27.2638 45.0575C27.1466 44.9406 26.988 44.875 26.8225 44.875H20.125V38.1775C20.1252 38.0953 20.1091 38.014 20.0778 37.9381C20.0465 37.8621 20.0005 37.7931 19.9425 37.735L15.2063 33L19.9425 28.2637C20.0594 28.1466 20.125 27.9879 20.125 27.8225V21.125H26.8225C26.988 21.1249 27.1466 21.0593 27.2638 20.9425L32 16.2062L36.735 20.9425C36.7932 21.0005 36.8622 21.0464 36.9381 21.0778C37.014 21.1091 37.0954 21.1251 37.1775 21.125H43.875V27.8225C43.8751 27.9879 43.9407 28.1466 44.0575 28.2637L48.7938 33L44.0575 37.735Z" fill="url(#paint2_linear_1412_1093)"/>
<path d="M42.625 23C42.625 22.8343 42.5592 22.6753 42.442 22.5581C42.3248 22.4409 42.1658 22.375 42 22.375H36.4013L32.4425 18.4163C32.3845 18.3581 32.3155 18.3119 32.2396 18.2804C32.1636 18.2489 32.0822 18.2327 32 18.2327C31.9178 18.2327 31.8364 18.2489 31.7605 18.2804C31.6846 18.3119 31.6156 18.3581 31.5575 18.4163L27.5988 22.375H22C21.8343 22.375 21.6753 22.4409 21.5581 22.5581C21.4409 22.6753 21.375 22.8343 21.375 23V28.5988L17.4163 32.5575C17.3581 32.6156 17.3119 32.6846 17.2804 32.7605C17.2489 32.8364 17.2327 32.9178 17.2327 33C17.2327 33.0822 17.2489 33.1636 17.2804 33.2396C17.3119 33.3155 17.3581 33.3845 17.4163 33.4425L21.375 37.4013V43C21.375 43.1658 21.4409 43.3248 21.5581 43.442C21.6753 43.5592 21.8343 43.625 22 43.625H27.5988L31.5575 47.5838C31.6156 47.642 31.6846 47.6882 31.7605 47.7197C31.8364 47.7512 31.9178 47.7674 32 47.7674C32.0822 47.7674 32.1636 47.7512 32.2396 47.7197C32.3155 47.6882 32.3845 47.642 32.4425 47.5838L36.4013 43.625H42C42.1658 43.625 42.3248 43.5592 42.442 43.442C42.5592 43.3248 42.625 43.1658 42.625 43V37.4013L46.5838 33.4425C46.642 33.3845 46.6882 33.3155 46.7197 33.2396C46.7512 33.1636 46.7674 33.0822 46.7674 33C46.7674 32.9178 46.7512 32.8364 46.7197 32.7605C46.6882 32.6846 46.642 32.6156 46.5838 32.5575L42.625 28.5988V23ZM45.2575 33L41.5575 36.7C41.4407 36.8172 41.3751 36.9758 41.375 37.1413V42.375H36.1413C35.9758 42.3751 35.8172 42.4407 35.7 42.5575L32 46.2575L28.3 42.5575C28.1829 42.4407 28.0242 42.3751 27.8588 42.375H22.625V37.1413C22.625 36.9758 22.5594 36.8172 22.4425 36.7L18.7425 33L22.4425 29.3C22.5594 29.1829 22.625 29.0242 22.625 28.8588V23.625H27.8588C28.0242 23.625 28.1829 23.5594 28.3 23.4425L32 19.7425L35.7 23.4425C35.8172 23.5594 35.9758 23.625 36.1413 23.625H41.375V28.8588C41.3751 29.0242 41.4407 29.1829 41.5575 29.3L45.2575 33Z" fill="url(#paint3_linear_1412_1093)"/>
<path d="M39.6962 25.9287C39.6962 25.763 39.6304 25.604 39.5132 25.4868C39.396 25.3696 39.237 25.3037 39.0712 25.3037H35.1875L32.4375 22.5537C32.3794 22.4955 32.3105 22.4494 32.2345 22.4178C32.1586 22.3863 32.0772 22.3701 31.995 22.3701C31.9128 22.3701 31.8314 22.3863 31.7554 22.4178C31.6795 22.4494 31.6105 22.4955 31.5525 22.5537L28.8025 25.3037H24.9287C24.763 25.3037 24.604 25.3696 24.4868 25.4868C24.3696 25.604 24.3037 25.763 24.3037 25.9287V29.8125L21.5537 32.5625C21.4955 32.6205 21.4494 32.6895 21.4178 32.7654C21.3863 32.8414 21.3701 32.9228 21.3701 33.005C21.3701 33.0872 21.3863 33.1686 21.4178 33.2445C21.4494 33.3205 21.4955 33.3894 21.5537 33.4475L24.3037 36.1975V40.0812C24.3037 40.247 24.3696 40.406 24.4868 40.5232C24.604 40.6404 24.763 40.7062 24.9287 40.7062H28.8125L31.5625 43.4562C31.6205 43.5144 31.6895 43.5606 31.7654 43.5921C31.8414 43.6236 31.9228 43.6399 32.005 43.6399C32.0872 43.6399 32.1686 43.6236 32.2445 43.5921C32.3205 43.5606 32.3894 43.5144 32.4475 43.4562L35.1975 40.7062H39.0812C39.247 40.7062 39.406 40.6404 39.5232 40.5232C39.6404 40.406 39.7062 40.247 39.7062 40.0812V36.1875L42.4562 33.4375C42.5144 33.3794 42.5606 33.3105 42.5921 33.2345C42.6236 33.1586 42.6399 33.0772 42.6399 32.995C42.6399 32.9128 42.6236 32.8314 42.5921 32.7554C42.5606 32.6795 42.5144 32.6105 42.4562 32.5525L39.7062 29.8025L39.6962 25.9287ZM38.4462 26.5537V28.5625L36.4375 26.5537H38.4462ZM38.4462 30.33V35.67L34.67 39.4462H29.33L25.5537 35.67V30.33L29.33 26.5537H34.67L38.4462 30.33ZM32 23.8837L33.42 25.3037H30.58L32 23.8837ZM25.5537 26.5537H27.5625L25.5537 28.5625V26.5537ZM22.8837 33L24.3037 31.58V34.42L22.8837 33ZM25.5537 39.4462V37.4375L27.5625 39.4462H25.5537ZM32 42.1162L30.58 40.6962H33.42L32 42.1162ZM38.4462 39.4462H36.4375L38.4462 37.4375V39.4462ZM41.1162 33L39.6962 34.42V31.58L41.1162 33Z" fill="url(#paint4_linear_1412_1093)"/>
</g>
<defs>
<filter id="filter0_b_1412_1093" x="-40" y="-40" width="145" height="145" filterUnits="userSpaceOnUse" color-interpolation-filters="sRGB">
<feFlood flood-opacity="0" result="BackgroundImageFix"/>
<feGaussianBlur in="BackgroundImageFix" stdDeviation="20"/>
<feComposite in2="SourceAlpha" operator="in" result="effect1_backgroundBlur_1412_1093"/>
<feBlend mode="normal" in="SourceGraphic" in2="effect1_backgroundBlur_1412_1093" result="shape"/>
</filter>
<filter id="filter1_b_1412_1093" x="-228" y="-227" width="520" height="520" filterUnits="userSpaceOnUse" color-interpolation-filters="sRGB">
<feFlood flood-opacity="0" result="BackgroundImageFix"/>
<feGaussianBlur in="BackgroundImageFix" stdDeviation="120"/>
<feComposite in2="SourceAlpha" operator="in" result="effect1_backgroundBlur_1412_1093"/>
<feBlend mode="normal" in="SourceGraphic" in2="effect1_backgroundBlur_1412_1093" result="shape"/>
</filter>
<linearGradient id="paint0_linear_1412_1093" x1="0" y1="0" x2="71.1936" y2="5.1592" gradientUnits="userSpaceOnUse">
<stop stop-color="white" stop-opacity="0.05"/>
<stop offset="1" stop-color="white" stop-opacity="0.1"/>
</linearGradient>
<linearGradient id="paint1_linear_1412_1093" x1="0" y1="0" x2="71.1936" y2="5.1592" gradientUnits="userSpaceOnUse">
<stop stop-color="#5307C7"/>
<stop offset="1" stop-color="#C902DD"/>
</linearGradient>
<linearGradient id="paint2_linear_1412_1093" x1="13.6914" y1="14.6997" x2="53.7977" y2="17.6068" gradientUnits="userSpaceOnUse">
<stop stop-color="#5307C7"/>
<stop offset="1" stop-color="#C902DD"/>
</linearGradient>
<linearGradient id="paint3_linear_1412_1093" x1="17.2327" y1="18.2327" x2="49.5817" y2="20.5769" gradientUnits="userSpaceOnUse">
<stop stop-color="#5307C7"/>
<stop offset="1" stop-color="#C902DD"/>
</linearGradient>
<linearGradient id="paint4_linear_1412_1093" x1="21.3701" y1="22.3701" x2="44.6666" y2="24.0583" gradientUnits="userSpaceOnUse">
<stop stop-color="#5307C7"/>
<stop offset="1" stop-color="#C902DD"/>
</linearGradient>
</defs>
</svg>
