<svg width="65" height="65" viewBox="0 0 65 65" fill="none" xmlns="http://www.w3.org/2000/svg">
<g filter="url(#filter0_b_1412_1094)">
<rect width="65" height="65" rx="4" fill="url(#paint0_linear_1412_1094)"/>
<rect x="0.25" y="0.25" width="64.5" height="64.5" rx="3.75" stroke="url(#paint1_linear_1412_1094)" stroke-opacity="0.15" stroke-width="0.5"/>
</g>
<g clip-path="url(#clip0_1412_1094)">
<path d="M51.4147 30.5366C51.0914 30.5366 50.8293 30.7987 50.8293 31.122V34.8782C50.8293 35.6107 52.0001 35.6441 52.0001 34.8782V31.122C52.0001 30.7987 51.7381 30.5366 51.4147 30.5366Z" fill="url(#paint2_linear_1412_1094)"/>
<path d="M48.9903 26.7183C48.6669 26.7183 48.4049 26.9803 48.4049 27.3036V38.6965C48.4049 39.429 49.5756 39.4624 49.5756 38.6965V27.3036C49.5756 26.9803 49.3136 26.7183 48.9903 26.7183Z" fill="url(#paint3_linear_1412_1094)"/>
<path d="M46.5658 27.9932C46.2425 27.9932 45.9805 28.2553 45.9805 28.5785V37.4218C45.9805 38.1543 47.1512 38.1877 47.1512 37.4218V28.5785C47.1512 28.2553 46.8892 27.9932 46.5658 27.9932Z" fill="url(#paint4_linear_1412_1094)"/>
<path d="M44.1415 24.063C43.8182 24.063 43.5562 24.3251 43.5562 24.6484V41.3521C43.5562 42.0847 44.7269 42.118 44.7269 41.3521V24.6484C44.7269 24.3251 44.4648 24.063 44.1415 24.063Z" fill="url(#paint5_linear_1412_1094)"/>
<path d="M12.5854 30.5366C12.262 30.5366 12 30.7987 12 31.122V34.8782C12 35.6107 13.1707 35.6441 13.1707 34.8782V31.122C13.1707 30.7987 12.9087 30.5366 12.5854 30.5366Z" fill="url(#paint6_linear_1412_1094)"/>
<path d="M15.0098 26.7183C14.6864 26.7183 14.4244 26.9803 14.4244 27.3036V38.6965C14.4244 39.429 15.5952 39.4624 15.5952 38.6965V27.3036C15.5952 26.9803 15.3331 26.7183 15.0098 26.7183Z" fill="url(#paint7_linear_1412_1094)"/>
<path d="M17.4341 27.9932C17.1108 27.9932 16.8488 28.2553 16.8488 28.5785V37.4218C16.8488 38.1543 18.0195 38.1877 18.0195 37.4218V28.5785C18.0195 28.2553 17.7575 27.9932 17.4341 27.9932Z" fill="url(#paint8_linear_1412_1094)"/>
<path d="M19.8586 24.063C19.5352 24.063 19.2732 24.3251 19.2732 24.6484V41.3521C19.2732 42.0847 20.4439 42.118 20.4439 41.3521V24.6484C20.4439 24.3251 20.1818 24.063 19.8586 24.063Z" fill="url(#paint9_linear_1412_1094)"/>
<path d="M42.2856 28.7158C42.2963 28.6717 42.3025 28.6258 42.3025 28.5785V22.2789C42.3025 21.5463 41.1318 21.513 41.1318 22.2789V26.6261C40.7574 26.0925 40.3379 25.5929 39.8781 25.1335V17.1562C39.8781 16.4236 38.7073 16.3903 38.7073 17.1562V24.116C38.3094 23.8157 37.8906 23.5417 37.4536 23.2961V18.7562C37.4536 18.0236 36.2829 17.9903 36.2829 18.7562V22.7254C35.8765 22.5561 35.4582 22.4101 35.0292 22.2894V15.4391C35.0292 14.7065 33.8585 14.6732 33.8585 15.4391V22.0284C33.4351 21.9577 33.0038 21.9104 32.5658 21.8891V13.605C32.5658 12.8724 31.395 12.8391 31.395 13.605V21.8934C30.9704 21.917 30.5521 21.9647 30.1413 22.0349V15.4391C30.1413 14.7065 28.9706 14.6732 28.9706 15.4391V22.3002C28.5416 22.4226 28.1232 22.5703 27.7169 22.7414V18.7562C27.7169 18.0236 26.5462 17.9903 26.5462 18.7562V23.3181C26.109 23.5662 25.6904 23.843 25.2925 24.146V17.1562C25.2925 16.4236 24.1217 16.3903 24.1217 17.1562V25.1733C23.6612 25.6379 23.2416 26.143 22.868 26.6823V22.2789C22.868 21.5463 21.6973 21.513 21.6973 22.2789V28.7464C21.6973 28.7764 21.7003 28.8056 21.7046 28.8344C21.1828 30.1217 20.8947 31.5278 20.8947 33.0001C20.8947 34.4378 21.165 35.8343 21.6973 37.1545V43.7213C21.6973 44.4538 22.868 44.4871 22.868 43.7213V37.2732C22.868 35.8416 22.0654 35.2635 22.0654 33.0001C22.0654 27.5115 26.5307 23.0462 32.0193 23.0462C37.5078 23.0462 41.9731 27.5115 41.9731 33.0001C41.9731 38.4887 37.5081 42.954 32.0196 42.954C29.463 42.954 27.033 41.9865 25.1774 40.2296C24.8093 39.8809 24.122 40.1443 24.122 40.6546V48.844C24.122 49.5766 25.2928 49.6099 25.2928 48.844V41.8607C25.6935 42.1657 26.1122 42.4418 26.5465 42.6877V47.2441C26.5465 47.9766 27.7172 48.01 27.7172 47.2441V43.2623C28.1256 43.4336 28.5441 43.5801 28.9709 43.7013V50.5611C28.9709 51.2937 30.1416 51.327 30.1416 50.5611V43.9665C30.5544 44.0366 30.9729 44.0833 31.3953 44.1068V52.3952C31.3953 53.1278 32.5661 53.1611 32.5661 52.3952V44.1111C33.0041 44.0898 33.4353 44.0425 33.8588 43.9718V50.5611C33.8588 51.2936 35.0295 51.327 35.0295 50.5611V43.7107C35.4584 43.5901 35.8768 43.444 36.2832 43.2747V47.244C36.2832 47.9766 37.4539 48.0099 37.4539 47.244V42.704C37.8908 42.4583 38.3097 42.1844 38.7076 41.8841V48.8439C38.7076 49.5765 39.8784 49.6098 39.8784 48.8439V40.8666C40.3382 40.4072 40.7577 39.9076 41.1321 39.374V43.7212C41.1321 44.4537 42.3028 44.4871 42.3028 43.7212V37.4216C42.3028 37.3742 42.2966 37.3284 42.2859 37.2843C42.8386 35.965 43.1445 34.5176 43.1445 33C43.1445 31.4824 42.8383 30.0351 42.2856 28.7158Z" fill="url(#paint10_linear_1412_1094)"/>
<path d="M34.1529 28.4267C34.8427 28.1803 34.4804 27.0665 33.7591 27.3241L29.561 28.8235C29.3302 28.9058 29.1725 29.1309 29.1725 29.3747V34.9776C28.8768 34.8249 28.5417 34.7381 28.1865 34.7381C26.9974 34.7381 26.0298 35.7056 26.0298 36.8948C26.0298 38.084 26.9973 39.0515 28.1865 39.0515C29.3757 39.0515 30.3432 38.084 30.3432 36.8948V31.8076L35.4578 29.9809V32.7329C35.1621 32.5802 34.8271 32.4934 34.4719 32.4934C33.2827 32.4934 32.3151 33.4609 32.3151 34.6501C32.3151 35.8393 33.2826 36.8068 34.4719 36.8068C35.6611 36.8068 36.6286 35.8393 36.6286 34.6501V27.1301C36.6286 26.3975 35.4578 26.3642 35.4578 27.1301V28.7379L30.3432 30.5646V29.7874L34.1529 28.4267ZM34.4719 35.6359C33.9282 35.6359 33.4859 35.1936 33.4859 34.65C33.4859 34.1063 33.9282 33.664 34.4719 33.664C35.0156 33.664 35.4579 34.1063 35.4579 34.65C35.4579 35.1936 35.0156 35.6359 34.4719 35.6359ZM28.1866 37.8808C27.6429 37.8808 27.2006 37.4385 27.2006 36.8948C27.2006 36.3511 27.6429 35.9088 28.1866 35.9088C28.7303 35.9088 29.1726 36.3511 29.1726 36.8948C29.1726 37.4385 28.7302 37.8808 28.1866 37.8808Z" fill="url(#paint11_linear_1412_1094)"/>
</g>
<defs>
<filter id="filter0_b_1412_1094" x="-40" y="-40" width="145" height="145" filterUnits="userSpaceOnUse" color-interpolation-filters="sRGB">
<feFlood flood-opacity="0" result="BackgroundImageFix"/>
<feGaussianBlur in="BackgroundImageFix" stdDeviation="20"/>
<feComposite in2="SourceAlpha" operator="in" result="effect1_backgroundBlur_1412_1094"/>
<feBlend mode="normal" in="SourceGraphic" in2="effect1_backgroundBlur_1412_1094" result="shape"/>
</filter>
<linearGradient id="paint0_linear_1412_1094" x1="0" y1="0" x2="71.1936" y2="5.1592" gradientUnits="userSpaceOnUse">
<stop stop-color="white" stop-opacity="0.05"/>
<stop offset="1" stop-color="white" stop-opacity="0.1"/>
</linearGradient>
<linearGradient id="paint1_linear_1412_1094" x1="0" y1="0" x2="71.1936" y2="5.1592" gradientUnits="userSpaceOnUse">
<stop stop-color="#5307C7"/>
<stop offset="1" stop-color="#C902DD"/>
</linearGradient>
<linearGradient id="paint2_linear_1412_1094" x1="50.8293" y1="30.5366" x2="52.118" y2="30.5589" gradientUnits="userSpaceOnUse">
<stop stop-color="#5307C7"/>
<stop offset="1" stop-color="#C902DD"/>
</linearGradient>
<linearGradient id="paint3_linear_1412_1094" x1="48.4049" y1="26.7183" x2="49.6939" y2="26.727" gradientUnits="userSpaceOnUse">
<stop stop-color="#5307C7"/>
<stop offset="1" stop-color="#C902DD"/>
</linearGradient>
<linearGradient id="paint4_linear_1412_1094" x1="45.9805" y1="27.9932" x2="47.2694" y2="28.0041" gradientUnits="userSpaceOnUse">
<stop stop-color="#5307C7"/>
<stop offset="1" stop-color="#C902DD"/>
</linearGradient>
<linearGradient id="paint5_linear_1412_1094" x1="43.5562" y1="24.063" x2="44.8451" y2="24.0691" gradientUnits="userSpaceOnUse">
<stop stop-color="#5307C7"/>
<stop offset="1" stop-color="#C902DD"/>
</linearGradient>
<linearGradient id="paint6_linear_1412_1094" x1="12" y1="30.5366" x2="13.2886" y2="30.5589" gradientUnits="userSpaceOnUse">
<stop stop-color="#5307C7"/>
<stop offset="1" stop-color="#C902DD"/>
</linearGradient>
<linearGradient id="paint7_linear_1412_1094" x1="14.4244" y1="26.7183" x2="15.7134" y2="26.727" gradientUnits="userSpaceOnUse">
<stop stop-color="#5307C7"/>
<stop offset="1" stop-color="#C902DD"/>
</linearGradient>
<linearGradient id="paint8_linear_1412_1094" x1="16.8488" y1="27.9932" x2="18.1377" y2="28.0041" gradientUnits="userSpaceOnUse">
<stop stop-color="#5307C7"/>
<stop offset="1" stop-color="#C902DD"/>
</linearGradient>
<linearGradient id="paint9_linear_1412_1094" x1="19.2732" y1="24.063" x2="20.5622" y2="24.0691" gradientUnits="userSpaceOnUse">
<stop stop-color="#5307C7"/>
<stop offset="1" stop-color="#C902DD"/>
</linearGradient>
<linearGradient id="paint10_linear_1412_1094" x1="20.8947" y1="13.043" x2="45.3527" y2="14.031" gradientUnits="userSpaceOnUse">
<stop stop-color="#5307C7"/>
<stop offset="1" stop-color="#C902DD"/>
</linearGradient>
<linearGradient id="paint11_linear_1412_1094" x1="26.0298" y1="26.5681" x2="37.6555" y2="27.2834" gradientUnits="userSpaceOnUse">
<stop stop-color="#5307C7"/>
<stop offset="1" stop-color="#C902DD"/>
</linearGradient>
<clipPath id="clip0_1412_1094">
<rect width="40" height="40" fill="white" transform="translate(12 13)"/>
</clipPath>
</defs>
</svg>
