<svg width="65" height="65" viewBox="0 0 65 65" fill="none" xmlns="http://www.w3.org/2000/svg">
<g filter="url(#filter0_b_1412_1095)">
<rect width="65" height="65" rx="4" fill="url(#paint0_linear_1412_1095)"/>
<rect x="0.25" y="0.25" width="64.5" height="64.5" rx="3.75" stroke="url(#paint1_linear_1412_1095)" stroke-opacity="0.15" stroke-width="0.5"/>
</g>
<path d="M48.0256 24.1875C47.2889 24.1875 46.5688 24.4059 45.9563 24.8152C45.3438 25.2245 44.8664 25.8062 44.5845 26.4868C44.3026 27.1674 44.2289 27.9162 44.3726 28.6387C44.5163 29.3612 44.8711 30.0249 45.392 30.5458C45.9129 31.0666 46.5766 31.4213 47.2991 31.565C48.0216 31.7087 48.7705 31.6349 49.451 31.353C50.1316 31.071 50.7133 30.5936 51.1225 29.9811C51.5317 29.3686 51.7501 28.6484 51.7501 27.9118C51.7489 26.9244 51.3561 25.9777 50.6579 25.2795C49.9596 24.5813 49.013 24.1886 48.0256 24.1875ZM48.0256 30.3866C47.5362 30.3866 47.0577 30.2414 46.6508 29.9695C46.2439 29.6976 45.9267 29.3112 45.7394 28.859C45.5521 28.4069 45.5031 27.9094 45.5986 27.4294C45.694 26.9494 45.9297 26.5084 46.2757 26.1624C46.6218 25.8163 47.0627 25.5806 47.5427 25.4851C48.0227 25.3896 48.5202 25.4385 48.9724 25.6258C49.4245 25.8131 49.811 26.1302 50.0829 26.5371C50.3549 26.944 50.5 27.4224 50.5001 27.9118C50.4993 28.5679 50.2384 29.1968 49.7745 29.6607C49.3106 30.1246 48.6816 30.3856 48.0256 30.3863V30.3866Z" fill="url(#paint2_linear_1412_1095)"/>
<path d="M44.1328 35.0071C43.8846 34.8988 43.6121 34.8581 43.3431 34.889C43.0741 34.92 42.818 35.0215 42.6008 35.1834L40.6346 36.6521L35.0555 32.1465C35.0143 32.1133 34.9691 32.0854 34.9209 32.0636L30.5605 30.0853L30.9877 28.1337C31.0232 27.9718 30.9928 27.8024 30.9034 27.6628C30.814 27.5233 30.6727 27.425 30.5108 27.3895C30.3489 27.3541 30.1795 27.3844 30.0399 27.4738C29.9004 27.5633 29.8021 27.7045 29.7666 27.8664L29.553 28.8425L26.3811 28.2942C26.3002 28.2803 26.2174 28.2824 26.1373 28.3004C26.0572 28.3184 25.9815 28.3521 25.9144 28.3994C25.8473 28.4467 25.7902 28.5068 25.7464 28.5761C25.7025 28.6455 25.6728 28.7229 25.6588 28.8037C25.6448 28.8846 25.6469 28.9675 25.6649 29.0475C25.683 29.1276 25.7166 29.2033 25.7639 29.2704C25.8112 29.3375 25.8713 29.3946 25.9407 29.4384C26.0101 29.4823 26.0874 29.5121 26.1683 29.526L29.2855 30.0651L29.2314 30.3123C29.2007 30.4521 29.219 30.5982 29.2831 30.7262C29.3472 30.8542 29.4533 30.9563 29.5837 31.0154L31.0118 31.6633L29.0266 34.3337C26.9173 34.0169 24.935 33.4192 24.3773 32.4411C23.9458 31.6844 24.597 30.1239 24.8588 29.6376C24.9135 29.5368 24.9393 29.4229 24.9335 29.3084L24.6126 22.956C24.6081 22.8676 24.5849 22.7813 24.5446 22.7026C24.5043 22.6239 24.4478 22.5546 24.3787 22.4994C24.3096 22.4442 24.2296 22.4042 24.144 22.3822C24.0583 22.3602 23.969 22.3566 23.8819 22.3717L22.6305 22.588V21.1104L24.128 20.49L25.8132 20.6306C25.9784 20.6445 26.1423 20.5921 26.2689 20.4851C26.3955 20.378 26.4743 20.2251 26.4882 20.0599C26.502 19.8947 26.4496 19.7308 26.3426 19.6042C26.2355 19.4776 26.0826 19.3988 25.9174 19.3849L24.0815 19.2314C23.9821 19.2231 23.8822 19.2387 23.7901 19.2768L20.2512 20.743L16.1805 20.1571C15.7425 20.0954 15.2978 20.2079 14.9419 20.4704C14.586 20.733 14.3472 21.1246 14.2769 21.5613C14.2065 21.9979 14.3102 22.4447 14.5657 22.8058C14.8211 23.1668 15.208 23.4133 15.6431 23.4923L20.0121 24.2713C20.0836 24.284 20.1567 24.2842 20.2283 24.2718L23.3998 23.7235L23.6767 29.2056C23.4888 29.5922 23.3322 29.9933 23.2085 30.4049C22.8841 31.5013 22.9116 32.3947 23.2914 33.0603C23.4495 33.3311 23.6503 33.5746 23.8859 33.7814L25.0023 40.3914C24.2538 40.7674 22.7577 41.6142 21.9666 42.7195C21.4818 43.3967 20.684 44.5217 20.2939 45.0721C20.1847 45.0596 20.075 45.053 19.9651 45.0523H19.9523C19.128 45.0523 18.7253 45.4169 18.5326 45.7235C18.3412 46.0282 17.833 46.8366 19.7845 50.855C19.9578 51.2123 20.2583 51.4921 20.6271 51.6395C20.9959 51.7868 21.4064 51.7912 21.7782 51.6517C22.1501 51.5123 22.4564 51.239 22.6373 50.8855C22.8182 50.5319 22.8606 50.1236 22.7562 49.7404L22.3421 48.207L29.1226 42.9388C29.2487 42.8408 29.3326 42.6982 29.3569 42.5403L30.2131 36.975C30.2383 36.8112 30.1974 36.6441 30.0994 36.5104C30.0014 36.3767 29.8543 36.2875 29.6904 36.2622C29.5266 36.237 29.3595 36.278 29.2258 36.376C29.0921 36.474 29.0029 36.6211 28.9776 36.7849L28.8879 37.3687L25.6794 36.8921L25.3008 34.6499C26.2226 35.0523 27.4132 35.3597 28.8723 35.5722C30.1361 35.7494 31.4096 35.8488 32.6856 35.8699C33.4203 36.7936 34.3122 37.5804 35.3203 38.1941C36.6719 39.0052 38.2258 39.5872 39.1016 39.9107C39.1026 39.9121 39.1034 39.9135 39.1045 39.9149C39.1498 39.9788 39.2176 40.1008 39.2654 40.1869C39.5076 40.6229 39.9125 41.3527 40.7612 41.3644H40.8031C41.1877 41.3644 41.9997 41.2303 44.7753 37.2892C44.9059 37.1035 44.9934 36.891 45.0317 36.6672C45.0699 36.4434 45.0578 36.2139 44.9964 35.9953C44.9349 35.7767 44.8255 35.5746 44.6762 35.4035C44.5269 35.2325 44.3414 35.0968 44.1331 35.0063L44.1328 35.0071ZM20.1235 23.0214L15.8625 22.2617C15.7491 22.2413 15.6483 22.1772 15.5817 22.0833C15.5151 21.9893 15.488 21.873 15.5063 21.7592C15.5246 21.6455 15.5869 21.5435 15.6796 21.4753C15.7724 21.407 15.8882 21.3778 16.0023 21.3941L20.2429 22.0047C20.354 22.0207 20.4673 22.0065 20.571 21.9635L21.3804 21.6282V22.8041L20.1235 23.0214ZM21.4907 50.3651C21.4551 50.4115 21.4083 50.4481 21.3547 50.4714C21.3011 50.4947 21.2424 50.504 21.1842 50.4984C21.126 50.4927 21.0702 50.4723 21.0221 50.4391C20.974 50.4059 20.9351 50.361 20.9091 50.3086C19.629 47.6727 19.5263 46.5899 19.5961 46.3817C19.645 46.3224 19.8259 46.2953 20.0322 46.3035L20.0991 46.7084C20.1779 47.1905 20.4073 47.6353 20.7545 47.9789L21.0706 48.293L21.5497 50.0658C21.564 50.1169 21.5661 50.1706 21.5558 50.2226C21.5455 50.2746 21.5231 50.3235 21.4905 50.3653L21.4907 50.3651ZM21.6808 47.1376L21.6356 47.0927C21.475 46.9337 21.3689 46.7279 21.3324 46.5049L21.2337 45.9081C21.5821 45.4159 22.4634 44.1731 22.9837 43.4471C23.416 42.8431 24.1612 42.3112 24.7962 41.9311L26.3611 43.5014L21.6808 47.1376ZM28.6976 38.6038L28.1591 42.1038L27.3553 42.7283L25.9543 41.3221C26.0802 41.2653 26.1837 41.1684 26.2487 41.0466C26.3137 40.9247 26.3366 40.7848 26.3137 40.6486L25.898 38.1877L28.6976 38.6038ZM32.9962 34.6223C32.2517 34.627 31.3695 34.591 30.4562 34.506L32.1768 32.1911L34.3323 33.1691L34.961 33.6769L33.6687 35.0971C33.5709 34.9734 33.5189 34.8986 33.517 34.8958C33.4597 34.8115 33.3826 34.7426 33.2926 34.6949C33.2025 34.6473 33.1021 34.6224 33.0002 34.6224L32.9962 34.6223ZM34.5192 36.0196L35.9352 34.4635L39.9948 37.7423V38.1095C39.9944 38.2106 39.9711 38.3104 39.9266 38.4012C39.882 38.492 39.8174 38.5715 39.7376 38.6337L39.5809 38.755C38.7533 38.4495 37.2399 37.8878 35.9632 37.1222C35.4437 36.8075 34.9596 36.4379 34.519 36.0198L34.5192 36.0196ZM43.7536 36.57C41.9765 39.0928 41.0469 39.9693 40.7471 40.1084C40.6463 40.07 40.5201 39.8672 40.4182 39.6879L40.503 39.6224C40.7332 39.443 40.9197 39.2136 41.0482 38.9515C41.1768 38.6895 41.2441 38.4017 41.2451 38.1098V37.7569L43.3494 36.1848C43.3866 36.1573 43.4299 36.1393 43.4755 36.1323C43.5212 36.1252 43.5678 36.1294 43.6115 36.1443C43.6553 36.1593 43.6947 36.1846 43.7264 36.2182C43.7582 36.2517 43.7813 36.2924 43.7939 36.3369C43.8052 36.3764 43.8074 36.4179 43.8003 36.4583C43.7932 36.4988 43.7771 36.5371 43.7531 36.5704L43.7536 36.57Z" fill="url(#paint3_linear_1412_1095)"/>
<path d="M31.7956 20.8905C31.7715 20.969 31.763 21.0515 31.7708 21.1332C31.7785 21.215 31.8023 21.2944 31.8408 21.367C31.8792 21.4395 31.9316 21.5038 31.9949 21.5561C32.0582 21.6084 32.1312 21.6477 32.2097 21.6718L33.1814 21.9702L33.5564 22.5152L31.7927 23.0551C31.6709 23.0925 31.5634 23.1663 31.4846 23.2666C31.4059 23.3669 31.3598 23.4888 31.3523 23.6161L29.3705 22.971C28.9708 22.841 28.536 22.8732 28.1598 23.0606C27.7836 23.2481 27.4961 23.5759 27.3593 23.9733C27.2224 24.3708 27.2472 24.806 27.4282 25.1854C27.6093 25.5647 27.9321 25.8578 28.3271 26.0014L33.4488 27.8626C33.9287 28.0367 34.4516 28.0538 34.9419 27.9115C35.4322 27.7692 35.8646 27.4749 36.1768 27.0709C36.489 26.667 36.6648 26.1743 36.6788 25.664C36.6929 25.1536 36.5445 24.652 36.2551 24.2315L34.0876 21.0817C34.0077 20.9656 33.8909 20.8799 33.7562 20.8386L32.5765 20.4762C32.4981 20.4522 32.4156 20.4438 32.3339 20.4515C32.2522 20.4593 32.1728 20.4831 32.1003 20.5216C32.0277 20.5601 31.9635 20.6125 31.9112 20.6758C31.859 20.7391 31.8197 20.8121 31.7956 20.8905ZM35.2409 26.232C35.0985 26.4512 34.8859 26.6156 34.6379 26.6983C34.39 26.781 34.1213 26.7771 33.8758 26.6873L28.7544 24.8262C28.6672 24.7948 28.5959 24.7303 28.5559 24.6467C28.5158 24.5632 28.5103 24.4672 28.5405 24.3796C28.5707 24.2919 28.6341 24.2197 28.7171 24.1785C28.8001 24.1373 28.896 24.1304 28.984 24.1593L32.32 25.2452C32.4742 25.2955 32.6419 25.2837 32.7876 25.2125C32.9334 25.1413 33.0457 25.0162 33.1008 24.8637C33.156 24.7111 33.1496 24.5431 33.0831 24.3952C33.0166 24.2473 32.8951 24.131 32.7444 24.071L34.3001 23.5948L35.2258 24.9399C35.3567 25.1293 35.428 25.3534 35.4307 25.5836C35.4333 25.8137 35.3671 26.0394 35.2406 26.2317L35.2409 26.232Z" fill="url(#paint4_linear_1412_1095)"/>
<path d="M29.3949 21.4391H29.4339C30.2161 21.4391 30.9801 21.0016 31.5355 20.2335C32.0578 19.485 32.345 18.5977 32.3603 17.6851C32.3777 16.7571 32.105 15.9004 31.5923 15.2728C31.3451 14.9609 31.032 14.7075 30.6755 14.5308C30.3189 14.354 29.9277 14.2583 29.5298 14.2505C27.8821 14.2206 26.6086 15.6489 26.5724 17.5762C26.5338 19.6406 27.8262 21.4096 29.3949 21.4391ZM29.4781 15.5H29.5065C29.7228 15.5058 29.9351 15.5592 30.1283 15.6566C30.3216 15.754 30.4909 15.8929 30.6242 16.0633C30.9496 16.4617 31.1223 17.0293 31.1104 17.6613C31.1018 18.3194 30.8973 18.9599 30.5228 19.5011C30.3341 19.7623 29.9414 20.201 29.4183 20.1891C28.5732 20.1734 27.7977 18.9147 27.8224 17.5994C27.8454 16.3776 28.5398 15.5 29.4781 15.5Z" fill="url(#paint5_linear_1412_1095)"/>
<defs>
<filter id="filter0_b_1412_1095" x="-40" y="-40" width="145" height="145" filterUnits="userSpaceOnUse" color-interpolation-filters="sRGB">
<feFlood flood-opacity="0" result="BackgroundImageFix"/>
<feGaussianBlur in="BackgroundImageFix" stdDeviation="20"/>
<feComposite in2="SourceAlpha" operator="in" result="effect1_backgroundBlur_1412_1095"/>
<feBlend mode="normal" in="SourceGraphic" in2="effect1_backgroundBlur_1412_1095" result="shape"/>
</filter>
<linearGradient id="paint0_linear_1412_1095" x1="0" y1="0" x2="71.1936" y2="5.1592" gradientUnits="userSpaceOnUse">
<stop stop-color="white" stop-opacity="0.05"/>
<stop offset="1" stop-color="white" stop-opacity="0.1"/>
</linearGradient>
<linearGradient id="paint1_linear_1412_1095" x1="0" y1="0" x2="71.1936" y2="5.1592" gradientUnits="userSpaceOnUse">
<stop stop-color="#5307C7"/>
<stop offset="1" stop-color="#C902DD"/>
</linearGradient>
<linearGradient id="paint2_linear_1412_1095" x1="44.301" y1="24.1875" x2="52.4599" y2="24.7787" gradientUnits="userSpaceOnUse">
<stop stop-color="#5307C7"/>
<stop offset="1" stop-color="#C902DD"/>
</linearGradient>
<linearGradient id="paint3_linear_1412_1095" x1="14.2554" y1="19.2292" x2="48.0064" y2="21.5453" gradientUnits="userSpaceOnUse">
<stop stop-color="#5307C7"/>
<stop offset="1" stop-color="#C902DD"/>
</linearGradient>
<linearGradient id="paint4_linear_1412_1095" x1="27.272" y1="20.4487" x2="37.5467" y2="21.3755" gradientUnits="userSpaceOnUse">
<stop stop-color="#5307C7"/>
<stop offset="1" stop-color="#C902DD"/>
</linearGradient>
<linearGradient id="paint5_linear_1412_1095" x1="26.5715" y1="14.25" x2="32.9244" y2="14.6207" gradientUnits="userSpaceOnUse">
<stop stop-color="#5307C7"/>
<stop offset="1" stop-color="#C902DD"/>
</linearGradient>
</defs>
</svg>
