<svg width="65" height="65" viewBox="0 0 65 65" fill="none" xmlns="http://www.w3.org/2000/svg">
<g filter="url(#filter0_b_1412_1096)">
<rect width="65" height="65" rx="4" fill="url(#paint0_linear_1412_1096)"/>
<rect x="0.25" y="0.25" width="64.5" height="64.5" rx="3.75" stroke="url(#paint1_linear_1412_1096)" stroke-opacity="0.15" stroke-width="0.5"/>
</g>
<path d="M32 37.2688V19.9813C32 19.4558 31.7913 18.9519 31.4197 18.5803C31.0481 18.2087 30.5442 18 30.0187 18H18.9813C18.4558 18 17.9519 18.2087 17.5803 18.5803C17.2087 18.9519 17 19.4558 17 19.9813V37.2688C17 37.7942 17.2087 38.2981 17.5803 38.6697C17.9519 39.0413 18.4558 39.25 18.9813 39.25H30.0187C30.5442 39.25 31.0481 39.0413 31.4197 38.6697C31.7913 38.2981 32 37.7942 32 37.2688ZM18.25 37.2688V19.9813C18.25 19.7873 18.327 19.6013 18.4642 19.4642C18.6013 19.327 18.7873 19.25 18.9813 19.25H30.0187C30.2127 19.25 30.3987 19.327 30.5358 19.4642C30.673 19.6013 30.75 19.7873 30.75 19.9813V37.2688C30.75 37.3648 30.7311 37.4599 30.6943 37.5486C30.6576 37.6373 30.6037 37.7179 30.5358 37.7858C30.4679 37.8537 30.3873 37.9076 30.2986 37.9443C30.2099 37.9811 30.1148 38 30.0187 38H18.9813C18.8852 38 18.7901 37.9811 18.7014 37.9443C18.6127 37.9076 18.5321 37.8537 18.4642 37.7858C18.3963 37.7179 18.3424 37.6373 18.3057 37.5486C18.2689 37.4599 18.25 37.3648 18.25 37.2688Z" fill="url(#paint2_linear_1412_1096)"/>
<path d="M35.0687 43.9938C35.5145 43.9927 35.9476 43.8449 36.3012 43.5732C36.6547 43.3016 36.909 42.9212 37.025 42.4907L41.5781 25.5C41.7166 24.9821 41.6441 24.4303 41.3763 23.9657C41.1086 23.5012 40.6676 23.1618 40.15 23.0219L33.9875 21.3125C33.8275 21.2682 33.6565 21.2892 33.512 21.371C33.3676 21.4527 33.2615 21.5885 33.2171 21.7485C33.1728 21.9084 33.1938 22.0795 33.2756 22.2239C33.3573 22.3684 33.4931 22.4744 33.6531 22.5188L39.8125 24.225C40.0111 24.2795 40.1805 24.4096 40.2843 24.5875C40.3387 24.6765 40.3744 24.7755 40.3895 24.8786C40.4045 24.9817 40.3985 25.0868 40.3718 25.1875L35.8187 42.1688C35.7928 42.2672 35.7473 42.3595 35.6851 42.44C35.6228 42.5205 35.545 42.5877 35.4562 42.6375C35.3683 42.6886 35.2711 42.7218 35.1703 42.7352C35.0694 42.7486 34.9669 42.742 34.8687 42.7157L25.875 40.3063C25.7934 40.2781 25.707 40.2671 25.621 40.274C25.535 40.2809 25.4514 40.3054 25.3754 40.3462C25.2994 40.387 25.2326 40.443 25.1793 40.5108C25.1261 40.5787 25.0874 40.6568 25.0658 40.7403C25.0441 40.8237 25.04 40.9108 25.0537 40.996C25.0673 41.0811 25.0985 41.1625 25.1451 41.2351C25.1918 41.3076 25.2529 41.3697 25.3248 41.4175C25.3966 41.4652 25.4775 41.4976 25.5625 41.5125L34.5437 43.9375C34.7155 43.979 34.892 43.9979 35.0687 43.9938Z" fill="url(#paint3_linear_1412_1096)"/>
<path d="M47.8062 31.25L42.7812 28.35C42.6384 28.2753 42.4722 28.2586 42.3174 28.3036C42.1626 28.3485 42.0311 28.4515 41.9504 28.591C41.8697 28.7306 41.8461 28.8959 41.8845 29.0525C41.9228 29.2091 42.0202 29.3448 42.1562 29.4313L47.1812 32.3344C47.2665 32.3833 47.3413 32.4486 47.4013 32.5264C47.4613 32.6043 47.5054 32.6933 47.5309 32.7882C47.5565 32.8832 47.563 32.9822 47.5502 33.0797C47.5374 33.1772 47.5054 33.2712 47.4562 33.3563L38.8281 48.3125C38.7792 48.3978 38.7139 48.4726 38.636 48.5326C38.5582 48.5926 38.4692 48.6367 38.3743 48.6622C38.2793 48.6878 38.1803 48.6943 38.0828 48.6815C37.9853 48.6687 37.8913 48.6367 37.8062 48.5875L29.6812 43.9C29.5374 43.8171 29.3666 43.7948 29.2063 43.8378C29.046 43.8809 28.9094 43.9859 28.8265 44.1297C28.7437 44.2735 28.7213 44.4443 28.7644 44.6046C28.8074 44.7649 28.9124 44.9015 29.0562 44.9844L37.1812 49.6719C37.6408 49.9367 38.1867 50.008 38.6989 49.8703C39.2111 49.7326 39.6476 49.3971 39.9125 48.9375L48.5375 33.9969C48.6711 33.7688 48.7583 33.5166 48.7939 33.2547C48.8295 32.9927 48.8128 32.7264 48.7448 32.4709C48.6768 32.2155 48.5588 31.9761 48.3977 31.7665C48.2366 31.5569 48.0356 31.3814 47.8062 31.25Z" fill="url(#paint4_linear_1412_1096)"/>
<defs>
<filter id="filter0_b_1412_1096" x="-40" y="-40" width="145" height="145" filterUnits="userSpaceOnUse" color-interpolation-filters="sRGB">
<feFlood flood-opacity="0" result="BackgroundImageFix"/>
<feGaussianBlur in="BackgroundImageFix" stdDeviation="20"/>
<feComposite in2="SourceAlpha" operator="in" result="effect1_backgroundBlur_1412_1096"/>
<feBlend mode="normal" in="SourceGraphic" in2="effect1_backgroundBlur_1412_1096" result="shape"/>
</filter>
<linearGradient id="paint0_linear_1412_1096" x1="0" y1="0" x2="71.1936" y2="5.1592" gradientUnits="userSpaceOnUse">
<stop stop-color="white" stop-opacity="0.05"/>
<stop offset="1" stop-color="white" stop-opacity="0.1"/>
</linearGradient>
<linearGradient id="paint1_linear_1412_1096" x1="0" y1="0" x2="71.1936" y2="5.1592" gradientUnits="userSpaceOnUse">
<stop stop-color="#5307C7"/>
<stop offset="1" stop-color="#C902DD"/>
</linearGradient>
<linearGradient id="paint2_linear_1412_1096" x1="17" y1="18" x2="33.4725" y2="18.8426" gradientUnits="userSpaceOnUse">
<stop stop-color="#5307C7"/>
<stop offset="1" stop-color="#C902DD"/>
</linearGradient>
<linearGradient id="paint3_linear_1412_1096" x1="25.0458" y1="21.2898" x2="43.273" y2="22.2556" gradientUnits="userSpaceOnUse">
<stop stop-color="#5307C7"/>
<stop offset="1" stop-color="#C902DD"/>
</linearGradient>
<linearGradient id="paint4_linear_1412_1096" x1="28.7429" y1="28.2788" x2="50.7407" y2="29.7558" gradientUnits="userSpaceOnUse">
<stop stop-color="#5307C7"/>
<stop offset="1" stop-color="#C902DD"/>
</linearGradient>
</defs>
</svg>
