<svg width="65" height="65" viewBox="0 0 65 65" fill="none" xmlns="http://www.w3.org/2000/svg">
<g filter="url(#filter0_b_1412_1097)">
<rect width="65" height="65" rx="4" fill="url(#paint0_linear_1412_1097)"/>
<rect x="0.25" y="0.25" width="64.5" height="64.5" rx="3.75" stroke="url(#paint1_linear_1412_1097)" stroke-opacity="0.15" stroke-width="0.5"/>
</g>
<path d="M24.5 38.4166C24.1833 38.4166 23.8667 38.2999 23.6167 38.0499C23.1333 37.5666 23.1333 36.7666 23.6167 36.2832L28.95 30.9499C29.2167 30.6832 29.5667 30.5499 29.95 30.5832C30.3167 30.6166 30.65 30.8166 30.8667 31.1332L32.6833 33.8666L38.6 27.9499C39.0833 27.4666 39.8833 27.4666 40.3667 27.9499C40.85 28.4332 40.85 29.2332 40.3667 29.7166L33.3667 36.7166C33.1 36.9832 32.75 37.1166 32.3667 37.0832C32 37.0499 31.6667 36.8499 31.45 36.5332L29.6333 33.7999L25.3833 38.0499C25.1333 38.2999 24.8167 38.4166 24.5 38.4166Z" fill="url(#paint2_linear_1412_1097)"/>
<path d="M39.5001 33.4166C38.8167 33.4166 38.2501 32.8499 38.2501 32.1666V30.0833H36.1667C35.4834 30.0833 34.9167 29.5166 34.9167 28.8333C34.9167 28.1499 35.4834 27.5833 36.1667 27.5833H39.5001C40.1834 27.5833 40.7501 28.1499 40.7501 28.8333V32.1666C40.7501 32.8499 40.1834 33.4166 39.5001 33.4166Z" fill="url(#paint3_linear_1412_1097)"/>
<path d="M37 50.9166H27C17.95 50.9166 14.0834 47.0499 14.0834 37.9999V27.9999C14.0834 18.9499 17.95 15.0833 27 15.0833H37C46.05 15.0833 49.9167 18.9499 49.9167 27.9999V37.9999C49.9167 47.0499 46.05 50.9166 37 50.9166ZM27 17.5833C19.3167 17.5833 16.5834 20.3166 16.5834 27.9999V37.9999C16.5834 45.6833 19.3167 48.4166 27 48.4166H37C44.6834 48.4166 47.4167 45.6833 47.4167 37.9999V27.9999C47.4167 20.3166 44.6834 17.5833 37 17.5833H27Z" fill="url(#paint4_linear_1412_1097)"/>
<defs>
<filter id="filter0_b_1412_1097" x="-40" y="-40" width="145" height="145" filterUnits="userSpaceOnUse" color-interpolation-filters="sRGB">
<feFlood flood-opacity="0" result="BackgroundImageFix"/>
<feGaussianBlur in="BackgroundImageFix" stdDeviation="20"/>
<feComposite in2="SourceAlpha" operator="in" result="effect1_backgroundBlur_1412_1097"/>
<feBlend mode="normal" in="SourceGraphic" in2="effect1_backgroundBlur_1412_1097" result="shape"/>
</filter>
<linearGradient id="paint0_linear_1412_1097" x1="0" y1="0" x2="71.1936" y2="5.1592" gradientUnits="userSpaceOnUse">
<stop stop-color="white" stop-opacity="0.05"/>
<stop offset="1" stop-color="white" stop-opacity="0.1"/>
</linearGradient>
<linearGradient id="paint1_linear_1412_1097" x1="0" y1="0" x2="71.1936" y2="5.1592" gradientUnits="userSpaceOnUse">
<stop stop-color="#5307C7"/>
<stop offset="1" stop-color="#C902DD"/>
</linearGradient>
<linearGradient id="paint2_linear_1412_1097" x1="23.2542" y1="27.5874" x2="42.2352" y2="29.8071" gradientUnits="userSpaceOnUse">
<stop stop-color="#5307C7"/>
<stop offset="1" stop-color="#C902DD"/>
</linearGradient>
<linearGradient id="paint3_linear_1412_1097" x1="34.9167" y1="27.5833" x2="41.3059" y2="28.0463" gradientUnits="userSpaceOnUse">
<stop stop-color="#5307C7"/>
<stop offset="1" stop-color="#C902DD"/>
</linearGradient>
<linearGradient id="paint4_linear_1412_1097" x1="14.0834" y1="15.0833" x2="53.3312" y2="17.9274" gradientUnits="userSpaceOnUse">
<stop stop-color="#5307C7"/>
<stop offset="1" stop-color="#C902DD"/>
</linearGradient>
</defs>
</svg>
