<svg width="40" height="40" viewBox="0 0 40 40" fill="none" xmlns="http://www.w3.org/2000/svg">
<rect width="40" height="40" rx="8" fill="#343444"/>
<path d="M27.6441 14.1805C28.5012 13.6444 29.1425 12.8001 29.4483 11.8054C28.6429 12.3054 27.7618 12.6577 26.8429 12.8469C25.569 11.4367 23.5505 11.0935 21.9155 12.0091C20.2804 12.9247 19.4335 14.8724 19.848 16.7638C16.549 16.5905 13.4754 14.9598 11.3921 12.2776C10.3048 14.24 10.8605 16.7486 12.6618 18.0105C12.0104 17.9885 11.3735 17.804 10.8041 17.4722C10.8041 17.4902 10.8041 17.5082 10.8041 17.5262C10.8045 19.5704 12.1813 21.3312 14.096 21.7363C13.4918 21.9083 12.858 21.9337 12.243 21.8104C12.7815 23.5585 14.3212 24.7561 16.0761 24.7919C14.6227 25.9856 12.8277 26.6329 10.98 26.6298C10.6525 26.6303 10.3253 26.6106 10 26.5707C11.8763 27.8324 14.06 28.5021 16.2903 28.4997C19.3931 28.522 22.375 27.242 24.569 24.946C26.763 22.6499 27.986 19.5295 27.9644 16.2826C27.9644 16.0965 27.9603 15.9114 27.952 15.7273C28.7556 15.1196 29.4491 14.3668 30 13.5042C29.2514 13.8514 28.4573 14.0794 27.6441 14.1805Z" fill="url(#paint0_linear_18_295)"/>
<defs>
<linearGradient id="paint0_linear_18_295" x1="10" y1="11.5" x2="31.8619" y2="13.3638" gradientUnits="userSpaceOnUse">
<stop stop-color="#5307C7"/>
<stop offset="1" stop-color="#C902DD"/>
</linearGradient>
</defs>
</svg>
