<svg width="40" height="40" viewBox="0 0 40 40" fill="none" xmlns="http://www.w3.org/2000/svg">
<rect width="40" height="40" rx="8" fill="#343444"/>
<path d="M10.002 20.0636C10.0032 25.0133 13.5804 29.2277 18.439 30.0034V22.9714H15.902V20.0636H18.442V17.8501C18.3285 16.8012 18.6845 15.7558 19.4136 14.9975C20.1428 14.2392 21.1694 13.8466 22.215 13.926C22.9655 13.9382 23.7142 14.0055 24.455 14.1273V16.6014H23.191C22.7558 16.5441 22.3184 16.6887 22.0018 16.9945C21.6852 17.3003 21.5238 17.7342 21.563 18.174V20.0636H24.334L23.891 22.9724H21.563V30.0034C26.8175 29.1679 30.5021 24.3395 29.9475 19.0163C29.3929 13.693 24.7933 9.73835 19.4808 10.0173C14.1684 10.2963 10.0028 14.7112 10.002 20.0636Z" fill="url(#paint0_linear_18_298)"/>
<defs>
<linearGradient id="paint0_linear_18_298" x1="10.002" y1="10.0034" x2="31.9085" y2="11.591" gradientUnits="userSpaceOnUse">
<stop stop-color="#5307C7"/>
<stop offset="1" stop-color="#C902DD"/>
</linearGradient>
</defs>
</svg>
