<svg width="40" height="40" viewBox="0 0 40 40" fill="none" xmlns="http://www.w3.org/2000/svg">
<rect width="40" height="40" rx="8" fill="#343444"/>
<path d="M31.3301 15.0556C31.1082 13.8338 30.0511 12.944 28.8244 12.6662C26.9886 12.2778 23.5911 12 19.9152 12C16.2414 12 12.7896 12.2778 10.9516 12.6662C9.72703 12.944 8.66775 13.7773 8.44589 15.0556C8.22186 16.4444 8 18.3889 8 20.8889C8 23.3889 8.22186 25.3333 8.50027 26.7222C8.72431 27.944 9.7814 28.8338 11.006 29.1115C12.9549 29.5 16.2958 29.7778 19.9717 29.7778C23.6476 29.7778 26.9886 29.5 28.9375 29.1115C30.162 28.8338 31.2191 28.0004 31.4432 26.7222C31.665 25.3333 31.9434 23.3325 32 20.8889C31.8869 18.3889 31.6085 16.4444 31.3301 15.0556ZM16.9092 24.7778V17L23.702 20.8889L16.9092 24.7778Z" fill="url(#paint0_linear_18_283)"/>
<defs>
<linearGradient id="paint0_linear_18_283" x1="8" y1="12" x2="34.1744" y2="14.5607" gradientUnits="userSpaceOnUse">
<stop stop-color="#5307C7"/>
<stop offset="1" stop-color="#C902DD"/>
</linearGradient>
</defs>
</svg>
