<svg width="40" height="40" viewBox="0 0 40 40" fill="none" xmlns="http://www.w3.org/2000/svg">
<rect width="40" height="40" rx="8" fill="#343444"/>
<path d="M29.1429 9H10.8571C9.28171 9 8 10.2817 8 11.8571V30.1429C8 31.7183 9.28171 33 10.8571 33H29.1429C30.7183 33 32 31.7183 32 30.1429V11.8571C32 10.2817 30.7183 9 29.1429 9ZM26.8606 19.4703C26.7309 19.4823 26.5994 19.4903 26.4663 19.4903C24.9674 19.4903 23.6503 18.7194 22.884 17.5543C22.884 20.6109 22.884 24.0886 22.884 24.1469C22.884 26.8377 20.7023 29.0194 18.0114 29.0194C15.3206 29.0194 13.1389 26.8377 13.1389 24.1469C13.1389 21.456 15.3206 19.2743 18.0114 19.2743C18.1131 19.2743 18.2126 19.2834 18.3126 19.2897V21.6909C18.2126 21.6789 18.1143 21.6606 18.0114 21.6606C16.6377 21.6606 15.5246 22.7737 15.5246 24.1474C15.5246 25.5211 16.6377 26.6343 18.0114 26.6343C19.3851 26.6343 20.5983 25.552 20.5983 24.1783C20.5983 24.124 20.6223 12.9817 20.6223 12.9817H22.9171C23.1331 15.0337 24.7897 16.6531 26.8606 16.8017V19.4703Z" fill="url(#paint0_linear_18_286)"/>
<defs>
<linearGradient id="paint0_linear_18_286" x1="8" y1="9" x2="34.2869" y2="10.9049" gradientUnits="userSpaceOnUse">
<stop stop-color="#5307C7"/>
<stop offset="1" stop-color="#C902DD"/>
</linearGradient>
</defs>
</svg>
