<svg width="40" height="40" viewBox="0 0 40 40" fill="none" xmlns="http://www.w3.org/2000/svg">
<rect width="40" height="40" rx="8" fill="#343444"/>
<path d="M28.6739 12.9672C26.5971 11.296 23.3118 11.0128 23.1712 11.0026C22.9531 10.9842 22.7452 11.1065 22.6556 11.3083C22.6474 11.3205 22.5761 11.4856 22.4966 11.7424C23.8702 11.9747 25.5577 12.4414 27.0842 13.3891C27.3288 13.5399 27.4042 13.8619 27.2534 14.1065C27.1535 14.2675 26.9844 14.3551 26.8091 14.3551C26.7154 14.3551 26.6196 14.3287 26.534 14.2757C23.909 12.6473 20.6318 12.5657 20 12.5657C19.3682 12.5657 16.089 12.6473 13.466 14.2757C13.2215 14.4285 12.8995 14.3531 12.7486 14.1085C12.5958 13.8619 12.6712 13.542 12.9158 13.3891C14.4423 12.4435 16.1298 11.9747 17.5034 11.7444C17.4239 11.4856 17.3526 11.3225 17.3465 11.3083C17.2548 11.1065 17.0489 10.9801 16.8288 11.0026C16.6882 11.0128 13.4029 11.296 11.2976 12.9897C10.199 14.0066 8 19.9496 8 25.0875C8 25.1792 8.02446 25.2668 8.06929 25.3463C9.5856 28.0121 13.7249 28.7091 14.6685 28.7397C14.6726 28.7397 14.6787 28.7397 14.6848 28.7397C14.8519 28.7397 15.0088 28.6602 15.1067 28.5257L16.0605 27.2132C13.4864 26.5488 12.1719 25.4197 12.0965 25.3524C11.8804 25.1629 11.8601 24.8327 12.0516 24.6167C12.2412 24.4007 12.5713 24.3803 12.7874 24.5698C12.8179 24.5984 15.2391 26.6527 20 26.6527C24.769 26.6527 27.1902 24.5902 27.2147 24.5698C27.4307 24.3823 27.7588 24.4007 27.9504 24.6187C28.1399 24.8348 28.1196 25.1629 27.9035 25.3524C27.8281 25.4197 26.5136 26.5488 23.9395 27.2132L24.8933 28.5257C24.9912 28.6602 25.1481 28.7397 25.3152 28.7397C25.3213 28.7397 25.3274 28.7397 25.3315 28.7397C26.2751 28.7091 30.4144 28.0121 31.9307 25.3463C31.9755 25.2668 32 25.1792 32 25.0875C32 19.9496 29.801 14.0066 28.6739 12.9672ZM16.6087 23.0005C15.5999 23.0005 14.7826 22.0671 14.7826 20.9136C14.7826 19.76 15.5999 18.8266 16.6087 18.8266C17.6175 18.8266 18.4348 19.76 18.4348 20.9136C18.4348 22.0671 17.6175 23.0005 16.6087 23.0005ZM23.3913 23.0005C22.3825 23.0005 21.5652 22.0671 21.5652 20.9136C21.5652 19.76 22.3825 18.8266 23.3913 18.8266C24.4001 18.8266 25.2174 19.76 25.2174 20.9136C25.2174 22.0671 24.4001 23.0005 23.3913 23.0005Z" fill="url(#paint0_linear_18_289)"/>
<defs>
<linearGradient id="paint0_linear_18_289" x1="8" y1="11" x2="34.1733" y2="13.5661" gradientUnits="userSpaceOnUse">
<stop stop-color="#5307C7"/>
<stop offset="1" stop-color="#C902DD"/>
</linearGradient>
</defs>
</svg>
