<svg width="8" height="13" viewBox="0 0 8 13" fill="none" xmlns="http://www.w3.org/2000/svg">
<path fill-rule="evenodd" clip-rule="evenodd" d="M0.39041 12.6189C0.140431 12.3748 0 12.0438 0 11.6987C0 11.3535 0.140431 11.0225 0.39041 10.7784L4.78139 6.49214L0.39041 2.20588C0.147515 1.96039 0.0131126 1.6316 0.0161507 1.29032C0.0191888 0.949035 0.159424 0.62257 0.406653 0.381238C0.653881 0.139906 0.988322 0.00301486 1.33794 4.92047e-05C1.68756 -0.00291645 2.02439 0.128281 2.27588 0.365383L7.60959 5.57189C7.85957 5.81598 8 6.147 8 6.49214C8 6.83729 7.85957 7.1683 7.60959 7.41239L2.27588 12.6189C2.02582 12.8629 1.68672 13 1.33314 13C0.979566 13 0.640465 12.8629 0.39041 12.6189Z" fill="white"/>
</svg>
