<svg width="24" height="24" viewBox="0 0 24 24" fill="none" xmlns="http://www.w3.org/2000/svg">
<path d="M7.10396 0H3.04798C1.36799 0 0 1.37999 0 3.07318V7.16396C0 8.86795 1.36799 10.2359 3.04798 10.2359H7.10396C8.79595 10.2359 10.1519 8.86795 10.1519 7.16396V3.07318C10.1519 1.37999 8.79595 0 7.10396 0Z" fill="url(#paint0_linear_5_467)"/>
<path d="M7.10396 13.7637H3.04798C1.36799 13.7637 0 15.1329 0 16.8369V20.9276C0 22.6196 1.36799 23.9996 3.04798 23.9996H7.10396C8.79595 23.9996 10.1519 22.6196 10.1519 20.9276V16.8369C10.1519 15.1329 8.79595 13.7637 7.10396 13.7637Z" fill="url(#paint1_linear_5_467)"/>
<path d="M20.9521 0H16.8961C15.2041 0 13.8481 1.37999 13.8481 3.07318V7.16396C13.8481 8.86795 15.2041 10.2359 16.8961 10.2359H20.9521C22.6321 10.2359 24.0001 8.86795 24.0001 7.16396V3.07318C24.0001 1.37999 22.6321 0 20.9521 0Z" fill="#66669C"/>
<path d="M20.9521 13.7637H16.8961C15.2041 13.7637 13.8481 15.1329 13.8481 16.8369V20.9276C13.8481 22.6196 15.2041 23.9996 16.8961 23.9996H20.9521C22.6321 23.9996 24.0001 22.6196 24.0001 20.9276V16.8369C24.0001 15.1329 22.6321 13.7637 20.9521 13.7637Z" fill="url(#paint2_linear_5_467)"/>
<defs>
<linearGradient id="paint0_linear_5_467" x1="0" y1="0" x2="11.1202" y2="0.79924" gradientUnits="userSpaceOnUse">
<stop stop-color="#5307C7"/>
<stop offset="1" stop-color="#C902DD"/>
</linearGradient>
<linearGradient id="paint1_linear_5_467" x1="0" y1="13.7637" x2="11.1202" y2="14.5629" gradientUnits="userSpaceOnUse">
<stop stop-color="#5307C7"/>
<stop offset="1" stop-color="#C902DD"/>
</linearGradient>
<linearGradient id="paint2_linear_5_467" x1="13.8481" y1="13.7637" x2="24.9684" y2="14.5629" gradientUnits="userSpaceOnUse">
<stop stop-color="#5307C7"/>
<stop offset="1" stop-color="#C902DD"/>
</linearGradient>
</defs>
</svg>
