<svg width="24" height="24" viewBox="0 0 24 24" fill="none" xmlns="http://www.w3.org/2000/svg">
<path fill-rule="evenodd" clip-rule="evenodd" d="M1.67523 7.06573C1.67523 3.79453 3.67323 1.67413 6.76563 1.67413H17.2248C20.328 1.67413 22.326 3.79453 22.326 7.06573V13.4281C21.7908 12.9745 20.1744 11.8453 19.9488 11.7109C18.2688 10.7029 16.2528 11.1589 14.9448 12.8629C14.8308 13.0129 12.9384 15.7729 12.2688 16.1857C12.114 16.2817 11.9508 16.3333 11.7768 16.3573C11.3568 16.3933 10.9524 16.1773 10.2648 15.7177C9.86883 15.4657 9.43683 15.1789 8.94483 14.9749C6.89883 14.1193 5.34003 15.5329 4.50963 16.4809C4.49883 16.4905 2.17443 19.3249 2.13723 19.3693C1.84563 18.6601 1.67523 17.8405 1.67523 16.9225V7.06573ZM24 7.0656C24 2.8344 21.2772 0 17.2248 0H6.7656C2.7252 0 0 2.8344 0 7.0656V16.9224C0 18.8088 0.5364 20.4156 1.4856 21.6108C1.4964 21.6216 1.4964 21.6336 1.5072 21.6336C2.4516 22.8156 3.7992 23.5992 5.4228 23.8788C5.4372 23.8812 5.4516 23.8836 5.4672 23.886C5.8836 23.9544 6.3144 24 6.7656 24H17.2248C17.442 24 17.64 23.9592 17.8488 23.9436C18.0936 23.9232 18.3468 23.9184 18.5796 23.8776C18.888 23.8248 19.1712 23.7324 19.458 23.6436C19.5828 23.604 19.716 23.58 19.836 23.5344C20.1276 23.424 20.3952 23.2812 20.6604 23.1348C20.7564 23.082 20.8596 23.0388 20.9532 22.98C21.2136 22.8168 21.45 22.626 21.6816 22.4268C21.7584 22.3608 21.8412 22.3008 21.9144 22.2312C22.14 22.0164 22.3392 21.78 22.53 21.5328C22.5888 21.4548 22.6512 21.3828 22.7076 21.3024C22.8912 21.0408 23.0496 20.7588 23.196 20.4648C23.2368 20.3796 23.28 20.2968 23.3196 20.2104C23.4552 19.902 23.568 19.5792 23.664 19.2408C23.6892 19.1496 23.7144 19.0596 23.736 18.966C23.8212 18.6168 23.8824 18.2568 23.922 17.88C23.9268 17.8344 23.94 17.7924 23.9448 17.7468C23.9532 17.6448 23.952 17.5428 23.958 17.4408C23.9676 17.2656 24 17.1036 24 16.9224V7.0656Z" fill="url(#paint0_linear_5_483)"/>
<path d="M7.8066 10.7994C9.44032 10.7994 10.8008 9.44333 10.8008 7.81739C10.8008 7.0021 10.4589 6.25514 9.91357 5.71316C9.37055 5.15149 8.61241 4.79944 7.7752 4.79944C6.13101 4.79944 4.80078 6.12428 4.80078 7.7618C4.80078 7.97836 4.82636 8.18797 4.87171 8.3918C5.14613 9.75022 6.37055 10.7994 7.8066 10.7994Z" fill="#66669C"/>
<defs>
<linearGradient id="paint0_linear_5_483" x1="0" y1="0" x2="26.2869" y2="1.90494" gradientUnits="userSpaceOnUse">
<stop stop-color="#5307C7"/>
<stop offset="1" stop-color="#C902DD"/>
</linearGradient>
</defs>
</svg>
