<svg width="27" height="24" viewBox="0 0 27 24" fill="none" xmlns="http://www.w3.org/2000/svg">
<path fill-rule="evenodd" clip-rule="evenodd" d="M21.2881 9.02002H25.9921C26.5488 9.02002 27.0001 9.4478 27.0001 9.97549V13.2969C26.9936 13.822 26.546 14.2462 25.9921 14.2523H21.3961C20.054 14.2695 18.8805 13.3985 18.5761 12.1594C18.4236 11.3902 18.6376 10.5965 19.1607 9.99101C19.6838 9.38549 20.4625 9.03008 21.2881 9.02002ZM21.4919 12.5122H21.9359C22.5059 12.5122 22.9679 12.0742 22.9679 11.5339C22.9679 10.9937 22.5059 10.5557 21.9359 10.5557H21.4919C21.2194 10.5527 20.9568 10.6532 20.7629 10.8349C20.569 11.0165 20.4599 11.2642 20.4599 11.5226C20.4599 12.0647 20.9201 12.5059 21.4919 12.5122Z" fill="#66669C"/>
<path d="M21.288 7.06361H27C27 2.60478 24.252 0 19.596 0H7.404C2.748 0 0 2.60478 0 7.00674V16.6183C0 21.0202 2.748 23.625 7.404 23.625H19.596C24.252 23.625 27 21.0202 27 16.6183V16.2088H21.288C18.637 16.2088 16.488 14.1717 16.488 11.6589C16.488 9.14614 18.637 7.10911 21.288 7.10911V7.06361Z" fill="url(#paint0_linear_5_493)"/>
<path d="M14.0161 7.06373H6.39607C5.82418 7.0575 5.36404 6.61627 5.36407 6.07414C5.37065 5.53833 5.83077 5.10726 6.39607 5.1073H14.0161C14.586 5.1073 15.0481 5.54526 15.0481 6.08552C15.0481 6.62577 14.586 7.06373 14.0161 7.06373Z" fill="#A834F9"/>
<defs>
<linearGradient id="paint0_linear_5_493" x1="0" y1="0" x2="29.5255" y2="2.44529" gradientUnits="userSpaceOnUse">
<stop stop-color="#5307C7"/>
<stop offset="1" stop-color="#C902DD"/>
</linearGradient>
</defs>
</svg>
