<svg width="16" height="16" viewBox="0 0 16 16" fill="none" xmlns="http://www.w3.org/2000/svg">
<g clip-path="url(#clip0_5_372)">
<path d="M14.7145 2.64646C12.9744 0.9068 10.1436 0.9068 8.40393 2.64646L7.99986 3.05029L7.59603 2.64646C5.85637 0.906564 3.02531 0.906564 1.28565 2.64646C-0.418689 4.35079 -0.429756 7.05235 1.25998 8.9307C2.80114 10.6433 7.34643 14.3432 7.53928 14.4998C7.6702 14.6063 7.82773 14.6581 7.98432 14.6581C7.9895 14.6581 7.99468 14.6581 7.99963 14.6578C8.16163 14.6654 8.32481 14.6098 8.45997 14.4998C8.65282 14.3432 13.1986 10.6433 14.7402 8.93046C16.4297 7.05235 16.4186 4.35079 14.7145 2.64646ZM13.69 7.98552C12.4884 9.3204 9.18546 12.0735 7.99963 13.0505C6.8138 12.0738 3.51155 9.32088 2.31018 7.98576C1.13142 6.6756 1.12035 4.80973 2.28452 3.64556C2.87908 3.05123 3.6599 2.75383 4.44072 2.75383C5.22154 2.75383 6.00236 3.051 6.59693 3.64556L7.48512 4.53376C7.59085 4.63948 7.72412 4.70259 7.86399 4.72472C8.09099 4.77346 8.33729 4.71012 8.51389 4.53399L9.40256 3.64556C10.5919 2.45667 12.5266 2.4569 13.7152 3.64556C14.8794 4.80973 14.8683 6.6756 13.69 7.98552Z" fill="white"/>
</g>
<defs>
<clipPath id="clip0_5_372">
<rect width="16" height="16" fill="white"/>
</clipPath>
</defs>
</svg>
