<svg width="40" height="40" viewBox="0 0 40 40" fill="none" xmlns="http://www.w3.org/2000/svg">
<g filter="url(#filter0_b_18_658)">
<circle cx="20" cy="20" r="20" fill="url(#paint0_linear_18_658)"/>
</g>
<g clip-path="url(#clip0_18_658)">
<path d="M14.2922 20.4431L22.4428 12.2926C22.6313 12.1039 22.8829 12 23.1512 12C23.4196 12 23.6712 12.1039 23.8597 12.2926L24.46 12.8927C24.8505 13.2837 24.8505 13.9192 24.46 14.3097L17.6157 21.1539L24.4676 28.0058C24.6561 28.1944 24.7602 28.4459 24.7602 28.7141C24.7602 28.9826 24.6561 29.2341 24.4676 29.4229L23.8673 30.0228C23.6787 30.2115 23.4272 30.3154 23.1588 30.3154C22.8905 30.3154 22.6389 30.2115 22.4504 30.0228L14.2922 21.8649C14.1032 21.6757 13.9994 21.423 14 21.1544C13.9994 20.8847 14.1032 20.6322 14.2922 20.4431Z" fill="white"/>
</g>
<defs>
<filter id="filter0_b_18_658" x="-40" y="-40" width="120" height="120" filterUnits="userSpaceOnUse" color-interpolation-filters="sRGB">
<feFlood flood-opacity="0" result="BackgroundImageFix"/>
<feGaussianBlur in="BackgroundImageFix" stdDeviation="20"/>
<feComposite in2="SourceAlpha" operator="in" result="effect1_backgroundBlur_18_658"/>
<feBlend mode="normal" in="SourceGraphic" in2="effect1_backgroundBlur_18_658" result="shape"/>
</filter>
<linearGradient id="paint0_linear_18_658" x1="-4.20213e-07" y1="-4" x2="44" y2="49" gradientUnits="userSpaceOnUse">
<stop stop-color="white" stop-opacity="0"/>
<stop offset="1" stop-color="white" stop-opacity="0.1"/>
</linearGradient>
<clipPath id="clip0_18_658">
<rect width="20" height="20" fill="white" transform="matrix(-1 0 0 1 29 10)"/>
</clipPath>
</defs>
</svg>
