<svg width="40" height="40" viewBox="0 0 40 40" fill="none" xmlns="http://www.w3.org/2000/svg">
<g filter="url(#filter0_b_18_664)">
<circle cx="20" cy="20" r="20" fill="url(#paint0_linear_18_664)"/>
</g>
<path d="M25.5827 18.4431L17.4321 10.2926C17.2436 10.1039 16.992 10 16.7236 10C16.4553 10 16.2037 10.1039 16.0151 10.2926L15.4149 10.8927C15.0243 11.2837 15.0243 11.9192 15.4149 12.3097L22.2592 19.1539L15.4073 26.0058C15.2188 26.1944 15.1147 26.4459 15.1147 26.7141C15.1147 26.9826 15.2188 27.2341 15.4073 27.4229L16.0075 28.0228C16.1962 28.2115 16.4477 28.3154 16.716 28.3154C16.9844 28.3154 17.236 28.2115 17.4245 28.0228L25.5827 19.8649C25.7717 19.6757 25.8755 19.423 25.8749 19.1544C25.8755 18.8847 25.7717 18.6322 25.5827 18.4431Z" fill="white"/>
<defs>
<filter id="filter0_b_18_664" x="-40" y="-40" width="120" height="120" filterUnits="userSpaceOnUse" color-interpolation-filters="sRGB">
<feFlood flood-opacity="0" result="BackgroundImageFix"/>
<feGaussianBlur in="BackgroundImageFix" stdDeviation="20"/>
<feComposite in2="SourceAlpha" operator="in" result="effect1_backgroundBlur_18_664"/>
<feBlend mode="normal" in="SourceGraphic" in2="effect1_backgroundBlur_18_664" result="shape"/>
</filter>
<linearGradient id="paint0_linear_18_664" x1="-2.5" y1="-8.5" x2="48" y2="52" gradientUnits="userSpaceOnUse">
<stop stop-color="white" stop-opacity="0"/>
<stop offset="1" stop-color="white" stop-opacity="0.1"/>
</linearGradient>
</defs>
</svg>
