<svg width="60" height="56" viewBox="0 0 60 56" fill="none" xmlns="http://www.w3.org/2000/svg">
<g filter="url(#filter0_b_1428_119)">
<path d="M0 0H50C55.5228 0 60 4.47715 60 10V46C60 51.5229 55.5228 56 50 56H0V0Z" fill="url(#paint0_linear_1428_119)"/>
</g>
<path d="M21.9153 18.1888C22.2396 17.9551 22.6718 17.9369 23.0145 18.1425L38.0145 27.1425C38.3157 27.3232 38.5 27.6487 38.5 28C38.5 28.3513 38.3157 28.6768 38.0145 28.8575L23.0145 37.8575C22.6718 38.0631 22.2396 38.0449 21.9153 37.8112C21.5911 37.5775 21.4372 37.1732 21.5239 36.7831L23.2534 29L28.5 29C29.0523 29 29.5 28.5523 29.5 28C29.5 27.4477 29.0523 27 28.5 27L23.2534 27L21.5239 19.2169C21.4372 18.8268 21.5911 18.4225 21.9153 18.1888Z" fill="url(#paint1_linear_1428_119)"/>
<defs>
<filter id="filter0_b_1428_119" x="-40" y="-40" width="140" height="136" filterUnits="userSpaceOnUse" color-interpolation-filters="sRGB">
<feFlood flood-opacity="0" result="BackgroundImageFix"/>
<feGaussianBlur in="BackgroundImageFix" stdDeviation="20"/>
<feComposite in2="SourceAlpha" operator="in" result="effect1_backgroundBlur_1428_119"/>
<feBlend mode="normal" in="SourceGraphic" in2="effect1_backgroundBlur_1428_119" result="shape"/>
</filter>
<linearGradient id="paint0_linear_1428_119" x1="-20.5" y1="-24" x2="62.5" y2="63" gradientUnits="userSpaceOnUse">
<stop stop-color="white" stop-opacity="0"/>
<stop offset="1" stop-color="white" stop-opacity="0.1"/>
</linearGradient>
<linearGradient id="paint1_linear_1428_119" x1="21.5" y1="18" x2="40.147" y2="19.1486" gradientUnits="userSpaceOnUse">
<stop stop-color="#5307C7"/>
<stop offset="1" stop-color="#C902DD"/>
</linearGradient>
</defs>
</svg>
