<svg width="45" height="45" viewBox="0 0 45 45" fill="none" xmlns="http://www.w3.org/2000/svg">
<circle cx="22.5" cy="22.5" r="22.5" fill="url(#paint0_linear_18_232)"/>
<path d="M22.8717 21.6707C24.0629 21.6707 25.0943 21.2434 25.9372 20.4005C26.7798 19.5577 27.2072 18.5265 27.2072 17.3352C27.2072 16.1443 26.78 15.1129 25.9371 14.2699C25.0941 13.4272 24.0628 13 22.8717 13C21.6804 13 20.6492 13.4272 19.8064 14.27C18.9636 15.1128 18.5363 16.1441 18.5363 17.3352C18.5363 18.5265 18.9636 19.5579 19.8064 20.4007C20.6495 21.2433 21.6808 21.6707 22.8717 21.6707ZM20.5524 15.0159C21.1991 14.3692 21.9577 14.0548 22.8717 14.0548C23.7857 14.0548 24.5444 14.3692 25.1912 15.0159C25.8379 15.6627 26.1524 16.4214 26.1524 17.3352C26.1524 18.2493 25.8379 19.0079 25.1912 19.6547C24.5444 20.3015 23.7857 20.6158 22.8717 20.6158C21.9579 20.6158 21.1993 20.3014 20.5524 19.6547C19.9056 19.008 19.5911 18.2493 19.5911 17.3352C19.5911 16.4214 19.9056 15.6627 20.5524 15.0159Z" fill="white"/>
<path d="M30.4577 26.8411C30.4333 26.4904 30.3842 26.1078 30.3118 25.7037C30.2388 25.2967 30.1447 24.9119 30.0321 24.5602C29.9156 24.1967 29.7576 23.8377 29.5619 23.4937C29.359 23.1367 29.1206 22.8257 28.8531 22.5699C28.5734 22.3022 28.2309 22.0871 27.8348 21.9301C27.4401 21.7739 27.0027 21.6948 26.5349 21.6948C26.3511 21.6948 26.1734 21.7702 25.8302 21.9937C25.619 22.1314 25.3719 22.2907 25.0962 22.4669C24.8604 22.6171 24.541 22.7579 24.1464 22.8853C23.7615 23.0099 23.3707 23.0731 22.9848 23.0731C22.5991 23.0731 22.2083 23.0099 21.8231 22.8853C21.429 22.758 21.1094 22.6173 20.874 22.467C20.6009 22.2925 20.3537 22.1332 20.1393 21.9935C19.7964 21.7701 19.6187 21.6947 19.4349 21.6947C18.9669 21.6947 18.5297 21.7739 18.1351 21.9302C17.7393 22.0869 17.3967 22.3021 17.1167 22.57C16.8492 22.826 16.6108 23.1368 16.4081 23.4937C16.2126 23.8377 16.0544 24.1966 15.938 24.5603C15.8255 24.912 15.7314 25.2967 15.6584 25.7037C15.5859 26.1072 15.5368 26.49 15.5125 26.8415C15.4886 27.1852 15.4766 27.543 15.4766 27.9044C15.4766 28.844 15.7753 29.6047 16.3643 30.1657C16.946 30.7193 17.7156 31 18.6517 31H27.3189C28.2548 31 29.0244 30.7193 29.6062 30.1657C30.1954 29.6051 30.494 28.8442 30.494 27.9043C30.4939 27.5416 30.4817 27.1839 30.4577 26.8411ZM28.8789 29.4015C28.4945 29.7673 27.9842 29.9451 27.3187 29.9451H18.6517C17.9861 29.9451 17.4758 29.7673 17.0916 29.4016C16.7146 29.0428 16.5314 28.5529 16.5314 27.9044C16.5314 27.5672 16.5425 27.2341 16.5648 26.9144C16.5865 26.6008 16.6308 26.2562 16.6966 25.8901C16.7616 25.5285 16.8442 25.1892 16.9426 24.882C17.0369 24.5874 17.1656 24.2957 17.3251 24.0147C17.4774 23.7469 17.6527 23.5172 17.846 23.3321C18.0269 23.1589 18.2549 23.0172 18.5235 22.9109C18.7719 22.8126 19.0511 22.7587 19.3542 22.7506C19.3911 22.7703 19.4569 22.8078 19.5635 22.8772C19.7803 23.0186 20.0303 23.1798 20.3066 23.3562C20.618 23.5548 21.0193 23.7342 21.4987 23.8889C21.9888 24.0474 22.4887 24.1279 22.9849 24.1279C23.4811 24.1279 23.9811 24.0474 24.4709 23.8891C24.9508 23.734 25.3519 23.5548 25.6638 23.356C25.9465 23.1752 26.1895 23.0187 26.4063 22.8772C26.5129 22.8079 26.5787 22.7703 26.6156 22.7506C26.9188 22.7587 27.198 22.8126 27.4466 22.9109C27.7151 23.0172 27.943 23.159 28.1239 23.3321C28.3172 23.5171 28.4925 23.7468 28.6448 24.0149C28.8045 24.2957 28.9333 24.5875 29.0275 24.8818C29.126 25.1894 29.2088 25.5286 29.2736 25.89C29.3392 26.2568 29.3837 26.6015 29.4054 26.9146V26.9148C29.4278 27.2333 29.4391 27.5662 29.4392 27.9044C29.4391 28.553 29.2559 29.0428 28.8789 29.4015Z" fill="white"/>
<defs>
<linearGradient id="paint0_linear_18_232" x1="0" y1="0" x2="49.2879" y2="3.57176" gradientUnits="userSpaceOnUse">
<stop stop-color="#5307C7"/>
<stop offset="1" stop-color="#C902DD"/>
</linearGradient>
</defs>
</svg>
